<svg xmlns="http://www.w3.org/2000/svg" width="1600" height="44" viewBox="0 0 1600 44" preserveAspectRatio="xMinYMid slice" role="img" aria-label="A Shared Qubit"><title>A Shared Qubit</title><path d="M3.6 27.14Q2.83 27.14 2.28 26.85Q1.73 26.56 1.37 26Q1.01 25.45 0.84 24.65Q0.67 23.84 0.67 22.81Q0.67 21.79 0.84 20.98Q1.01 20.17 1.37 19.62Q1.73 19.07 2.28 18.77Q2.83 18.48 3.6 18.48Q4.37 18.48 4.92 18.77Q5.47 19.07 5.83 19.62Q6.19 20.17 6.36 20.98Q6.53 21.79 6.53 22.81Q6.53 23.84 6.36 24.65Q6.19 25.45 5.83 26Q5.47 26.56 4.92 26.85Q4.37 27.14 3.6 27.14ZM3.6 26.27Q4.1 26.27 4.46 26.07Q4.82 25.87 5.05 25.51Q5.27 25.15 5.38 24.64Q5.48 24.13 5.48 23.5L5.48 22.13Q5.48 21.5 5.38 20.99Q5.27 20.47 5.05 20.11Q4.82 19.75 4.46 19.55Q4.1 19.36 3.6 19.36Q3.1 19.36 2.74 19.55Q2.38 19.75 2.15 20.11Q1.93 20.47 1.82 20.99Q1.72 21.5 1.72 22.13L1.72 23.5Q1.72 24.13 1.82 24.64Q1.93 25.15 2.15 25.51Q2.38 25.87 2.74 26.07Q3.1 26.27 3.6 26.27ZM3.6 23.52Q3.18 23.52 3.02 23.35Q2.86 23.18 2.86 22.94L2.86 22.68Q2.86 22.44 3.02 22.27Q3.18 22.1 3.6 22.1Q4.02 22.1 4.18 22.27Q4.34 22.44 4.34 22.68L4.34 22.94Q4.34 23.18 4.18 23.35Q4.02 23.52 3.6 23.52ZM11.64 22.18Q12.52 22.18 12.95 21.79Q13.39 21.4 13.39 20.78L13.39 20.7Q13.39 20.03 12.97 19.69Q12.54 19.36 11.86 19.36Q11.18 19.36 10.77 19.65Q10.36 19.94 10.09 20.42L9.34 19.85Q9.49 19.6 9.72 19.35Q9.95 19.1 10.25 18.91Q10.56 18.72 10.96 18.6Q11.36 18.48 11.88 18.48Q12.42 18.48 12.89 18.62Q13.36 18.76 13.7 19.03Q14.05 19.3 14.25 19.69Q14.45 20.09 14.45 20.59Q14.45 21 14.32 21.32Q14.2 21.65 13.97 21.89Q13.75 22.13 13.45 22.3Q13.15 22.46 12.82 22.55L12.82 22.6Q13.16 22.67 13.49 22.83Q13.81 22.99 14.06 23.25Q14.32 23.51 14.47 23.87Q14.62 24.24 14.62 24.71Q14.62 25.25 14.41 25.7Q14.2 26.15 13.82 26.47Q13.44 26.78 12.91 26.96Q12.37 27.14 11.72 27.14Q11.17 27.14 10.75 27.02Q10.32 26.9 9.99 26.7Q9.66 26.5 9.41 26.24Q9.17 25.99 8.98 25.72L9.73 25.14Q9.9 25.39 10.08 25.6Q10.26 25.8 10.49 25.95Q10.73 26.1 11.03 26.18Q11.33 26.27 11.72 26.27Q12.61 26.27 13.09 25.86Q13.56 25.45 13.56 24.7L13.56 24.6Q13.56 23.86 13.1 23.45Q12.64 23.04 11.71 23.04L10.72 23.04L10.72 22.18Z" fill="#a898ff"/><path d="M39.54 27L38.91 24.77L36.24 24.77L35.61 27L34.24 27L36.69 18.62L38.52 18.62L40.97 27ZM37.62 19.98L37.53 19.98L36.5 23.65L38.66 23.65ZM55.77 27.14Q54.68 27.14 53.93 26.76Q53.19 26.38 52.71 25.74L53.57 24.91Q54.05 25.49 54.59 25.76Q55.13 26.03 55.82 26.03Q56.61 26.03 57.03 25.67Q57.46 25.31 57.46 24.64Q57.46 24.1 57.15 23.8Q56.84 23.51 56.08 23.38L55.17 23.23Q54.57 23.14 54.16 22.91Q53.75 22.69 53.5 22.39Q53.25 22.08 53.13 21.7Q53.02 21.32 53.02 20.9Q53.02 19.72 53.79 19.1Q54.56 18.48 55.9 18.48Q56.9 18.48 57.6 18.8Q58.3 19.12 58.73 19.69L57.89 20.53Q57.54 20.11 57.07 19.85Q56.6 19.6 55.9 19.6Q55.16 19.6 54.77 19.91Q54.38 20.23 54.38 20.84Q54.38 21.36 54.68 21.65Q54.99 21.95 55.77 22.08L56.66 22.24Q57.78 22.44 58.3 23.06Q58.82 23.68 58.82 24.56Q58.82 25.14 58.62 25.62Q58.42 26.1 58.03 26.44Q57.64 26.77 57.07 26.96Q56.5 27.14 55.77 27.14ZM66.35 23.32L63.57 23.32L63.57 27L62.22 27L62.22 18.62L63.57 18.62L63.57 22.19L66.35 22.19L66.35 18.62L67.7 18.62L67.7 27L66.35 27ZM76.02 27L75.39 24.77L72.72 24.77L72.09 27L70.72 27L73.17 18.62L75 18.62L77.45 27ZM74.1 19.98L74.01 19.98L72.98 23.65L75.14 23.65ZM81.94 27L80.61 27L80.61 18.62L83.74 18.62Q84.94 18.62 85.57 19.3Q86.2 19.97 86.2 21.14Q86.2 22.1 85.73 22.73Q85.26 23.35 84.39 23.5L86.32 27L84.83 27L83.06 23.62L81.94 23.62ZM83.55 22.54Q84.8 22.54 84.8 21.4L84.8 20.88Q84.8 19.74 83.55 19.74L81.94 19.74L81.94 22.54ZM89.75 27L89.75 18.62L95 18.62L95 19.75L91.1 19.75L91.1 22.19L94.85 22.19L94.85 23.32L91.1 23.32L91.1 25.87L95 25.87L95 27ZM98.82 18.62L101.32 18.62Q102.93 18.62 103.7 19.69Q104.48 20.76 104.48 22.81Q104.48 24.86 103.7 25.93Q102.93 27 101.32 27L98.82 27ZM101.24 25.9Q102.16 25.9 102.61 25.28Q103.06 24.66 103.06 23.51L103.06 22.12Q103.06 20.96 102.61 20.35Q102.16 19.73 101.24 19.73L100.16 19.73L100.16 25.9ZM122.15 29.1L120.62 29.1Q119.8 29.1 119.44 28.67Q119.08 28.25 119.08 27.55L119.08 27.1Q118.44 26.99 117.98 26.65Q117.51 26.32 117.2 25.77Q116.9 25.22 116.75 24.48Q116.61 23.74 116.61 22.81Q116.61 21.79 116.79 20.98Q116.97 20.17 117.35 19.62Q117.72 19.07 118.31 18.77Q118.89 18.48 119.68 18.48Q120.47 18.48 121.05 18.77Q121.64 19.07 122.01 19.62Q122.39 20.17 122.57 20.98Q122.75 21.79 122.75 22.81Q122.75 24.66 122.15 25.78Q121.55 26.89 120.28 27.1L120.28 28.09L122.15 28.09ZM119.68 26.03Q120.58 26.03 120.95 25.35Q121.32 24.67 121.32 23.51L121.32 22.1Q121.32 20.95 120.95 20.27Q120.58 19.6 119.68 19.6Q118.78 19.6 118.41 20.27Q118.04 20.95 118.04 22.1L118.04 23.52Q118.04 24.67 118.41 25.35Q118.78 26.03 119.68 26.03ZM127.37 18.62L127.37 23.77Q127.37 24.29 127.4 24.71Q127.43 25.13 127.58 25.42Q127.72 25.72 128.01 25.87Q128.3 26.03 128.8 26.03Q129.3 26.03 129.59 25.87Q129.88 25.72 130.02 25.42Q130.17 25.13 130.2 24.71Q130.23 24.29 130.23 23.77L130.23 18.62L131.57 18.62L131.57 23.53Q131.57 24.43 131.47 25.11Q131.37 25.79 131.07 26.24Q130.77 26.69 130.22 26.92Q129.68 27.14 128.8 27.14Q127.92 27.14 127.38 26.92Q126.83 26.69 126.53 26.24Q126.23 25.79 126.13 25.11Q126.03 24.43 126.03 23.53L126.03 18.62ZM135.32 18.62L138.21 18.62Q139.35 18.62 139.98 19.21Q140.61 19.8 140.61 20.82Q140.61 21.55 140.25 21.98Q139.89 22.42 139.28 22.6L139.28 22.66Q140.01 22.82 140.45 23.3Q140.9 23.77 140.9 24.64Q140.9 25.15 140.73 25.58Q140.56 26.02 140.25 26.33Q139.94 26.65 139.5 26.83Q139.06 27 138.53 27L135.32 27ZM138.12 25.97Q138.8 25.97 139.16 25.69Q139.52 25.42 139.52 24.8L139.52 24.37Q139.52 23.76 139.16 23.48Q138.8 23.21 138.12 23.21L136.64 23.21L136.64 25.97ZM137.93 22.22Q138.57 22.22 138.9 21.98Q139.23 21.73 139.23 21.16L139.23 20.72Q139.23 20.15 138.9 19.9Q138.57 19.66 137.93 19.66L136.64 19.66L136.64 22.22ZM144.4 27L144.4 25.98L146.37 25.98L146.37 19.64L144.4 19.64L144.4 18.62L149.68 18.62L149.68 19.64L147.71 19.64L147.71 25.98L149.68 25.98L149.68 27ZM156.83 19.75L156.83 27L155.49 27L155.49 19.75L152.86 19.75L152.86 18.62L159.46 18.62L159.46 19.75Z" fill="#ededed"/><line x1="177.8" y1="22.5" x2="1600" y2="22.5" stroke="#2a2a2a"/></svg>
